<mxfile host="app.diagrams.net" modified="2023-08-21T05:55:27.551Z" agent="Mozilla/5.0 (Windows NT 10.0; Win64; x64) AppleWebKit/537.36 (KHTML, like Gecko) Chrome/116.0.0.0 Safari/537.36" etag="NilLyfypvJVd8KeqA-kE" version="21.6.8" type="github">
  <diagram name="Page-1" id="uYZwgpSrCl1AbV22iKYU">
    <mxGraphModel dx="1434" dy="758" grid="1" gridSize="10" guides="1" tooltips="1" connect="1" arrows="1" fold="1" page="1" pageScale="1" pageWidth="1654" pageHeight="2336" math="0" shadow="0">
      <root>
        <mxCell id="0" />
        <mxCell id="1" parent="0" />
        <mxCell id="DXRxuqhWDTDYT6WPdfsn-1" value="Pool" style="swimlane;html=1;childLayout=stackLayout;startSize=20;rounded=0;shadow=0;labelBackgroundColor=none;strokeWidth=1;fontFamily=Verdana;fontSize=8;align=center;" parent="1" vertex="1">
          <mxGeometry x="30" y="50" width="840" height="750" as="geometry" />
        </mxCell>
        <mxCell id="DXRxuqhWDTDYT6WPdfsn-2" value="Lane 1" style="swimlane;html=1;startSize=20;" parent="DXRxuqhWDTDYT6WPdfsn-1" vertex="1" collapsed="1">
          <mxGeometry y="20" width="40" height="730" as="geometry">
            <mxRectangle y="20" width="160" height="730" as="alternateBounds" />
          </mxGeometry>
        </mxCell>
        <mxCell id="DXRxuqhWDTDYT6WPdfsn-3" value="" style="rounded=1;whiteSpace=wrap;html=1;shadow=0;labelBackgroundColor=none;strokeWidth=1;fontFamily=Verdana;fontSize=8;align=center;" parent="DXRxuqhWDTDYT6WPdfsn-2" vertex="1">
          <mxGeometry x="20" y="65" width="100" height="60" as="geometry" />
        </mxCell>
        <mxCell id="DXRxuqhWDTDYT6WPdfsn-4" value="" style="rounded=1;whiteSpace=wrap;html=1;shadow=0;labelBackgroundColor=none;strokeWidth=1;fontFamily=Verdana;fontSize=8;align=center;" parent="DXRxuqhWDTDYT6WPdfsn-2" vertex="1">
          <mxGeometry x="20" y="155" width="100" height="60" as="geometry" />
        </mxCell>
        <mxCell id="DXRxuqhWDTDYT6WPdfsn-5" value="" style="rounded=1;whiteSpace=wrap;html=1;shadow=0;labelBackgroundColor=none;strokeWidth=1;fontFamily=Verdana;fontSize=8;align=center;" parent="DXRxuqhWDTDYT6WPdfsn-2" vertex="1">
          <mxGeometry x="30" y="560" width="100" height="60" as="geometry" />
        </mxCell>
        <mxCell id="DXRxuqhWDTDYT6WPdfsn-6" style="edgeStyle=orthogonalEdgeStyle;rounded=1;html=1;labelBackgroundColor=none;startArrow=none;startFill=0;startSize=5;endArrow=classicThin;endFill=1;endSize=5;jettySize=auto;orthogonalLoop=1;strokeWidth=1;fontFamily=Verdana;fontSize=8" parent="DXRxuqhWDTDYT6WPdfsn-1" source="DXRxuqhWDTDYT6WPdfsn-3" target="DXRxuqhWDTDYT6WPdfsn-22" edge="1">
          <mxGeometry relative="1" as="geometry" />
        </mxCell>
        <mxCell id="DXRxuqhWDTDYT6WPdfsn-7" style="edgeStyle=orthogonalEdgeStyle;rounded=1;html=1;labelBackgroundColor=none;startArrow=none;startFill=0;startSize=5;endArrow=classicThin;endFill=1;endSize=5;jettySize=auto;orthogonalLoop=1;strokeWidth=1;fontFamily=Verdana;fontSize=8" parent="DXRxuqhWDTDYT6WPdfsn-1" source="DXRxuqhWDTDYT6WPdfsn-22" target="DXRxuqhWDTDYT6WPdfsn-4" edge="1">
          <mxGeometry relative="1" as="geometry">
            <Array as="points">
              <mxPoint x="240" y="155" />
              <mxPoint x="70" y="155" />
            </Array>
          </mxGeometry>
        </mxCell>
        <mxCell id="DXRxuqhWDTDYT6WPdfsn-8" style="edgeStyle=orthogonalEdgeStyle;rounded=1;html=1;labelBackgroundColor=none;startArrow=none;startFill=0;startSize=5;endArrow=classicThin;endFill=1;endSize=5;jettySize=auto;orthogonalLoop=1;strokeWidth=1;fontFamily=Verdana;fontSize=8" parent="DXRxuqhWDTDYT6WPdfsn-1" source="DXRxuqhWDTDYT6WPdfsn-4" target="DXRxuqhWDTDYT6WPdfsn-24" edge="1">
          <mxGeometry relative="1" as="geometry" />
        </mxCell>
        <mxCell id="DXRxuqhWDTDYT6WPdfsn-9" style="edgeStyle=orthogonalEdgeStyle;rounded=1;html=1;labelBackgroundColor=none;startArrow=none;startFill=0;startSize=5;endArrow=classicThin;endFill=1;endSize=5;jettySize=auto;orthogonalLoop=1;strokeWidth=1;fontFamily=Verdana;fontSize=8" parent="DXRxuqhWDTDYT6WPdfsn-1" source="DXRxuqhWDTDYT6WPdfsn-25" target="DXRxuqhWDTDYT6WPdfsn-4" edge="1">
          <mxGeometry relative="1" as="geometry" />
        </mxCell>
        <mxCell id="DXRxuqhWDTDYT6WPdfsn-10" style="edgeStyle=orthogonalEdgeStyle;rounded=1;html=1;labelBackgroundColor=none;startArrow=none;startFill=0;startSize=5;endArrow=classicThin;endFill=1;endSize=5;jettySize=auto;orthogonalLoop=1;strokeWidth=1;fontFamily=Verdana;fontSize=8" parent="DXRxuqhWDTDYT6WPdfsn-1" source="DXRxuqhWDTDYT6WPdfsn-30" target="DXRxuqhWDTDYT6WPdfsn-4" edge="1">
          <mxGeometry relative="1" as="geometry" />
        </mxCell>
        <mxCell id="DXRxuqhWDTDYT6WPdfsn-11" style="edgeStyle=orthogonalEdgeStyle;rounded=1;html=1;labelBackgroundColor=none;startArrow=none;startFill=0;startSize=5;endArrow=classicThin;endFill=1;endSize=5;jettySize=auto;orthogonalLoop=1;strokeWidth=1;fontFamily=Verdana;fontSize=8" parent="DXRxuqhWDTDYT6WPdfsn-1" source="DXRxuqhWDTDYT6WPdfsn-33" target="DXRxuqhWDTDYT6WPdfsn-4" edge="1">
          <mxGeometry relative="1" as="geometry">
            <Array as="points">
              <mxPoint x="20" y="690" />
              <mxPoint x="20" y="370" />
              <mxPoint x="70" y="370" />
            </Array>
          </mxGeometry>
        </mxCell>
        <mxCell id="DXRxuqhWDTDYT6WPdfsn-12" style="edgeStyle=orthogonalEdgeStyle;rounded=1;html=1;labelBackgroundColor=none;startArrow=none;startFill=0;startSize=5;endArrow=classicThin;endFill=1;endSize=5;jettySize=auto;orthogonalLoop=1;strokeWidth=1;fontFamily=Verdana;fontSize=8" parent="DXRxuqhWDTDYT6WPdfsn-1" source="DXRxuqhWDTDYT6WPdfsn-25" target="DXRxuqhWDTDYT6WPdfsn-29" edge="1">
          <mxGeometry relative="1" as="geometry" />
        </mxCell>
        <mxCell id="DXRxuqhWDTDYT6WPdfsn-13" style="edgeStyle=orthogonalEdgeStyle;rounded=1;html=1;labelBackgroundColor=none;startArrow=none;startFill=0;startSize=5;endArrow=classicThin;endFill=1;endSize=5;jettySize=auto;orthogonalLoop=1;strokeWidth=1;fontFamily=Verdana;fontSize=8" parent="DXRxuqhWDTDYT6WPdfsn-1" source="DXRxuqhWDTDYT6WPdfsn-33" target="DXRxuqhWDTDYT6WPdfsn-41" edge="1">
          <mxGeometry relative="1" as="geometry" />
        </mxCell>
        <mxCell id="DXRxuqhWDTDYT6WPdfsn-14" style="edgeStyle=orthogonalEdgeStyle;rounded=1;html=1;labelBackgroundColor=none;startArrow=none;startFill=0;startSize=5;endArrow=classicThin;endFill=1;endSize=5;jettySize=auto;orthogonalLoop=1;strokeWidth=1;fontFamily=Verdana;fontSize=8" parent="DXRxuqhWDTDYT6WPdfsn-1" source="DXRxuqhWDTDYT6WPdfsn-41" target="DXRxuqhWDTDYT6WPdfsn-45" edge="1">
          <mxGeometry relative="1" as="geometry" />
        </mxCell>
        <mxCell id="DXRxuqhWDTDYT6WPdfsn-15" style="edgeStyle=orthogonalEdgeStyle;rounded=1;html=1;labelBackgroundColor=none;startArrow=none;startFill=0;startSize=5;endArrow=classicThin;endFill=1;endSize=5;jettySize=auto;orthogonalLoop=1;strokeWidth=1;fontFamily=Verdana;fontSize=8" parent="DXRxuqhWDTDYT6WPdfsn-1" source="DXRxuqhWDTDYT6WPdfsn-31" target="DXRxuqhWDTDYT6WPdfsn-38" edge="1">
          <mxGeometry relative="1" as="geometry" />
        </mxCell>
        <mxCell id="DXRxuqhWDTDYT6WPdfsn-16" style="edgeStyle=orthogonalEdgeStyle;rounded=1;html=1;labelBackgroundColor=none;startArrow=none;startFill=0;startSize=5;endArrow=classicThin;endFill=1;endSize=5;jettySize=auto;orthogonalLoop=1;strokeWidth=1;fontFamily=Verdana;fontSize=8" parent="DXRxuqhWDTDYT6WPdfsn-1" source="DXRxuqhWDTDYT6WPdfsn-40" target="DXRxuqhWDTDYT6WPdfsn-26" edge="1">
          <mxGeometry relative="1" as="geometry">
            <Array as="points">
              <mxPoint x="660" y="610" />
              <mxPoint x="660" y="550" />
              <mxPoint x="400" y="550" />
            </Array>
          </mxGeometry>
        </mxCell>
        <mxCell id="DXRxuqhWDTDYT6WPdfsn-17" style="edgeStyle=orthogonalEdgeStyle;rounded=1;html=1;labelBackgroundColor=none;startArrow=none;startFill=0;startSize=5;endArrow=classicThin;endFill=1;endSize=5;jettySize=auto;orthogonalLoop=1;strokeColor=#000000;strokeWidth=1;fontFamily=Verdana;fontSize=8;fontColor=#000000;" parent="DXRxuqhWDTDYT6WPdfsn-1" source="DXRxuqhWDTDYT6WPdfsn-40" target="DXRxuqhWDTDYT6WPdfsn-32" edge="1">
          <mxGeometry relative="1" as="geometry" />
        </mxCell>
        <mxCell id="DXRxuqhWDTDYT6WPdfsn-18" style="edgeStyle=orthogonalEdgeStyle;rounded=1;html=1;labelBackgroundColor=none;startArrow=none;startFill=0;startSize=5;endArrow=classicThin;endFill=1;endSize=5;jettySize=auto;orthogonalLoop=1;strokeWidth=1;fontFamily=Verdana;fontSize=8" parent="DXRxuqhWDTDYT6WPdfsn-1" source="DXRxuqhWDTDYT6WPdfsn-40" target="DXRxuqhWDTDYT6WPdfsn-5" edge="1">
          <mxGeometry relative="1" as="geometry">
            <Array as="points">
              <mxPoint x="660" y="610" />
              <mxPoint x="660" y="550" />
              <mxPoint x="80" y="550" />
            </Array>
          </mxGeometry>
        </mxCell>
        <mxCell id="DXRxuqhWDTDYT6WPdfsn-19" style="edgeStyle=orthogonalEdgeStyle;rounded=1;html=1;labelBackgroundColor=none;startArrow=none;startFill=0;startSize=5;endArrow=classicThin;endFill=1;endSize=5;jettySize=auto;orthogonalLoop=1;strokeWidth=1;fontFamily=Verdana;fontSize=8" parent="DXRxuqhWDTDYT6WPdfsn-1" source="DXRxuqhWDTDYT6WPdfsn-5" target="DXRxuqhWDTDYT6WPdfsn-32" edge="1">
          <mxGeometry relative="1" as="geometry">
            <Array as="points">
              <mxPoint x="80" y="650" />
              <mxPoint x="490" y="650" />
              <mxPoint x="490" y="610" />
            </Array>
          </mxGeometry>
        </mxCell>
        <mxCell id="DXRxuqhWDTDYT6WPdfsn-20" style="edgeStyle=orthogonalEdgeStyle;rounded=1;html=1;labelBackgroundColor=none;startArrow=none;startFill=0;startSize=5;endArrow=classicThin;endFill=1;endSize=5;jettySize=auto;orthogonalLoop=1;strokeWidth=1;fontFamily=Verdana;fontSize=8" parent="DXRxuqhWDTDYT6WPdfsn-1" source="DXRxuqhWDTDYT6WPdfsn-26" target="DXRxuqhWDTDYT6WPdfsn-32" edge="1">
          <mxGeometry relative="1" as="geometry" />
        </mxCell>
        <mxCell id="DXRxuqhWDTDYT6WPdfsn-21" value="Lane 2" style="swimlane;html=1;startSize=20;" parent="DXRxuqhWDTDYT6WPdfsn-1" vertex="1">
          <mxGeometry x="40" y="20" width="160" height="730" as="geometry" />
        </mxCell>
        <mxCell id="DXRxuqhWDTDYT6WPdfsn-22" value="" style="rounded=1;whiteSpace=wrap;html=1;shadow=0;labelBackgroundColor=none;strokeWidth=1;fontFamily=Verdana;fontSize=8;align=center;" parent="DXRxuqhWDTDYT6WPdfsn-21" vertex="1">
          <mxGeometry x="30" y="65" width="100" height="60" as="geometry" />
        </mxCell>
        <mxCell id="DXRxuqhWDTDYT6WPdfsn-23" value="Lane 3" style="swimlane;html=1;startSize=20;" parent="DXRxuqhWDTDYT6WPdfsn-1" vertex="1">
          <mxGeometry x="200" y="20" width="160" height="730" as="geometry" />
        </mxCell>
        <mxCell id="DXRxuqhWDTDYT6WPdfsn-24" value="" style="rounded=1;whiteSpace=wrap;html=1;shadow=0;labelBackgroundColor=none;strokeWidth=1;fontFamily=Verdana;fontSize=8;align=center;" parent="DXRxuqhWDTDYT6WPdfsn-23" vertex="1">
          <mxGeometry x="30" y="155" width="100" height="60" as="geometry" />
        </mxCell>
        <mxCell id="DXRxuqhWDTDYT6WPdfsn-25" value="" style="rhombus;whiteSpace=wrap;html=1;rounded=0;shadow=0;labelBackgroundColor=none;strokeWidth=1;fontFamily=Verdana;fontSize=8;align=center;" parent="DXRxuqhWDTDYT6WPdfsn-23" vertex="1">
          <mxGeometry x="40" y="240" width="80" height="60" as="geometry" />
        </mxCell>
        <mxCell id="DXRxuqhWDTDYT6WPdfsn-26" value="" style="rounded=1;whiteSpace=wrap;html=1;shadow=0;labelBackgroundColor=none;strokeWidth=1;fontFamily=Verdana;fontSize=8;align=center;" parent="DXRxuqhWDTDYT6WPdfsn-23" vertex="1">
          <mxGeometry x="30" y="560" width="100" height="60" as="geometry" />
        </mxCell>
        <mxCell id="DXRxuqhWDTDYT6WPdfsn-27" style="edgeStyle=orthogonalEdgeStyle;rounded=1;html=1;labelBackgroundColor=none;startArrow=none;startFill=0;startSize=5;endArrow=classicThin;endFill=1;endSize=5;jettySize=auto;orthogonalLoop=1;strokeWidth=1;fontFamily=Verdana;fontSize=8" parent="DXRxuqhWDTDYT6WPdfsn-23" source="DXRxuqhWDTDYT6WPdfsn-24" target="DXRxuqhWDTDYT6WPdfsn-25" edge="1">
          <mxGeometry relative="1" as="geometry" />
        </mxCell>
        <mxCell id="DXRxuqhWDTDYT6WPdfsn-28" value="Lane 4" style="swimlane;html=1;startSize=20;" parent="DXRxuqhWDTDYT6WPdfsn-1" vertex="1">
          <mxGeometry x="360" y="20" width="160" height="730" as="geometry" />
        </mxCell>
        <mxCell id="DXRxuqhWDTDYT6WPdfsn-29" value="" style="rounded=1;whiteSpace=wrap;html=1;shadow=0;labelBackgroundColor=none;strokeWidth=1;fontFamily=Verdana;fontSize=8;align=center;" parent="DXRxuqhWDTDYT6WPdfsn-28" vertex="1">
          <mxGeometry x="30" y="240" width="100" height="60" as="geometry" />
        </mxCell>
        <mxCell id="DXRxuqhWDTDYT6WPdfsn-30" value="" style="rhombus;whiteSpace=wrap;html=1;rounded=0;shadow=0;labelBackgroundColor=none;strokeWidth=1;fontFamily=Verdana;fontSize=8;align=center;" parent="DXRxuqhWDTDYT6WPdfsn-28" vertex="1">
          <mxGeometry x="40" y="320" width="80" height="60" as="geometry" />
        </mxCell>
        <mxCell id="DXRxuqhWDTDYT6WPdfsn-31" value="" style="rounded=1;whiteSpace=wrap;html=1;shadow=0;labelBackgroundColor=none;strokeWidth=1;fontFamily=Verdana;fontSize=8;align=center;" parent="DXRxuqhWDTDYT6WPdfsn-28" vertex="1">
          <mxGeometry x="30" y="400" width="100" height="60" as="geometry" />
        </mxCell>
        <mxCell id="DXRxuqhWDTDYT6WPdfsn-32" value="" style="rounded=1;whiteSpace=wrap;html=1;shadow=0;labelBackgroundColor=none;strokeWidth=1;fontFamily=Verdana;fontSize=8;align=center;" parent="DXRxuqhWDTDYT6WPdfsn-28" vertex="1">
          <mxGeometry x="30" y="560" width="100" height="60" as="geometry" />
        </mxCell>
        <mxCell id="DXRxuqhWDTDYT6WPdfsn-33" value="" style="rhombus;whiteSpace=wrap;html=1;rounded=0;shadow=0;labelBackgroundColor=none;strokeWidth=1;fontFamily=Verdana;fontSize=8;align=center;" parent="DXRxuqhWDTDYT6WPdfsn-28" vertex="1">
          <mxGeometry x="40" y="640" width="80" height="60" as="geometry" />
        </mxCell>
        <mxCell id="DXRxuqhWDTDYT6WPdfsn-34" style="edgeStyle=orthogonalEdgeStyle;rounded=1;html=1;labelBackgroundColor=none;startArrow=none;startFill=0;startSize=5;endArrow=classicThin;endFill=1;endSize=5;jettySize=auto;orthogonalLoop=1;strokeColor=#000000;strokeWidth=1;fontFamily=Verdana;fontSize=8;fontColor=#000000;" parent="DXRxuqhWDTDYT6WPdfsn-28" source="DXRxuqhWDTDYT6WPdfsn-29" target="DXRxuqhWDTDYT6WPdfsn-30" edge="1">
          <mxGeometry relative="1" as="geometry" />
        </mxCell>
        <mxCell id="DXRxuqhWDTDYT6WPdfsn-35" style="edgeStyle=orthogonalEdgeStyle;rounded=1;html=1;labelBackgroundColor=none;startArrow=none;startFill=0;startSize=5;endArrow=classicThin;endFill=1;endSize=5;jettySize=auto;orthogonalLoop=1;strokeWidth=1;fontFamily=Verdana;fontSize=8" parent="DXRxuqhWDTDYT6WPdfsn-28" source="DXRxuqhWDTDYT6WPdfsn-30" target="DXRxuqhWDTDYT6WPdfsn-31" edge="1">
          <mxGeometry relative="1" as="geometry" />
        </mxCell>
        <mxCell id="DXRxuqhWDTDYT6WPdfsn-36" style="edgeStyle=orthogonalEdgeStyle;rounded=1;html=1;labelBackgroundColor=none;startArrow=none;startFill=0;startSize=5;endArrow=classicThin;endFill=1;endSize=5;jettySize=auto;orthogonalLoop=1;strokeWidth=1;fontFamily=Verdana;fontSize=8" parent="DXRxuqhWDTDYT6WPdfsn-28" source="DXRxuqhWDTDYT6WPdfsn-32" target="DXRxuqhWDTDYT6WPdfsn-33" edge="1">
          <mxGeometry relative="1" as="geometry" />
        </mxCell>
        <mxCell id="DXRxuqhWDTDYT6WPdfsn-37" value="Lane 5" style="swimlane;html=1;startSize=20;" parent="DXRxuqhWDTDYT6WPdfsn-1" vertex="1">
          <mxGeometry x="520" y="20" width="160" height="730" as="geometry" />
        </mxCell>
        <mxCell id="DXRxuqhWDTDYT6WPdfsn-38" value="" style="rounded=1;whiteSpace=wrap;html=1;shadow=0;labelBackgroundColor=none;strokeWidth=1;fontFamily=Verdana;fontSize=8;align=center;" parent="DXRxuqhWDTDYT6WPdfsn-37" vertex="1">
          <mxGeometry x="30" y="400" width="100" height="60" as="geometry" />
        </mxCell>
        <mxCell id="DXRxuqhWDTDYT6WPdfsn-39" value="" style="rounded=1;whiteSpace=wrap;html=1;shadow=0;labelBackgroundColor=none;strokeWidth=1;fontFamily=Verdana;fontSize=8;align=center;" parent="DXRxuqhWDTDYT6WPdfsn-37" vertex="1">
          <mxGeometry x="30" y="480" width="100" height="60" as="geometry" />
        </mxCell>
        <mxCell id="DXRxuqhWDTDYT6WPdfsn-40" value="" style="rounded=1;whiteSpace=wrap;html=1;shadow=0;labelBackgroundColor=none;strokeWidth=1;fontFamily=Verdana;fontSize=8;align=center;" parent="DXRxuqhWDTDYT6WPdfsn-37" vertex="1">
          <mxGeometry x="30" y="560" width="100" height="60" as="geometry" />
        </mxCell>
        <mxCell id="DXRxuqhWDTDYT6WPdfsn-41" value="" style="rounded=1;whiteSpace=wrap;html=1;shadow=0;labelBackgroundColor=none;strokeWidth=1;fontFamily=Verdana;fontSize=8;align=center;" parent="DXRxuqhWDTDYT6WPdfsn-37" vertex="1">
          <mxGeometry x="30" y="640" width="100" height="60" as="geometry" />
        </mxCell>
        <mxCell id="DXRxuqhWDTDYT6WPdfsn-42" style="edgeStyle=orthogonalEdgeStyle;rounded=1;html=1;labelBackgroundColor=none;startArrow=none;startFill=0;startSize=5;endArrow=classicThin;endFill=1;endSize=5;jettySize=auto;orthogonalLoop=1;strokeWidth=1;fontFamily=Verdana;fontSize=8" parent="DXRxuqhWDTDYT6WPdfsn-37" source="DXRxuqhWDTDYT6WPdfsn-38" target="DXRxuqhWDTDYT6WPdfsn-39" edge="1">
          <mxGeometry relative="1" as="geometry" />
        </mxCell>
        <mxCell id="DXRxuqhWDTDYT6WPdfsn-43" style="edgeStyle=orthogonalEdgeStyle;rounded=1;html=1;labelBackgroundColor=none;startArrow=none;startFill=0;startSize=5;endArrow=classicThin;endFill=1;endSize=5;jettySize=auto;orthogonalLoop=1;strokeWidth=1;fontFamily=Verdana;fontSize=8" parent="DXRxuqhWDTDYT6WPdfsn-37" source="DXRxuqhWDTDYT6WPdfsn-39" target="DXRxuqhWDTDYT6WPdfsn-40" edge="1">
          <mxGeometry relative="1" as="geometry" />
        </mxCell>
        <mxCell id="DXRxuqhWDTDYT6WPdfsn-44" value="Lane 6" style="swimlane;html=1;startSize=20;" parent="DXRxuqhWDTDYT6WPdfsn-1" vertex="1">
          <mxGeometry x="680" y="20" width="160" height="730" as="geometry" />
        </mxCell>
        <mxCell id="DXRxuqhWDTDYT6WPdfsn-45" value="" style="rounded=1;whiteSpace=wrap;html=1;shadow=0;labelBackgroundColor=none;strokeWidth=1;fontFamily=Verdana;fontSize=8;align=center;" parent="DXRxuqhWDTDYT6WPdfsn-44" vertex="1">
          <mxGeometry x="30" y="640" width="100" height="60" as="geometry" />
        </mxCell>
        <mxCell id="DXRxuqhWDTDYT6WPdfsn-46" value=":Object" style="shape=umlLifeline;perimeter=lifelinePerimeter;whiteSpace=wrap;html=1;container=0;dropTarget=0;collapsible=0;recursiveResize=0;outlineConnect=0;portConstraint=eastwest;newEdgeStyle={&quot;edgeStyle&quot;:&quot;elbowEdgeStyle&quot;,&quot;elbow&quot;:&quot;vertical&quot;,&quot;curved&quot;:0,&quot;rounded&quot;:0};" parent="1" vertex="1">
          <mxGeometry x="345" y="940" width="100" height="300" as="geometry" />
        </mxCell>
        <mxCell id="DXRxuqhWDTDYT6WPdfsn-47" value="" style="html=1;points=[];perimeter=orthogonalPerimeter;outlineConnect=0;targetShapes=umlLifeline;portConstraint=eastwest;newEdgeStyle={&quot;edgeStyle&quot;:&quot;elbowEdgeStyle&quot;,&quot;elbow&quot;:&quot;vertical&quot;,&quot;curved&quot;:0,&quot;rounded&quot;:0};" parent="DXRxuqhWDTDYT6WPdfsn-46" vertex="1">
          <mxGeometry x="45" y="70" width="10" height="190" as="geometry" />
        </mxCell>
        <mxCell id="DXRxuqhWDTDYT6WPdfsn-48" value="dispatch" style="html=1;verticalAlign=bottom;startArrow=oval;endArrow=block;startSize=8;edgeStyle=elbowEdgeStyle;elbow=vertical;curved=0;rounded=0;" parent="DXRxuqhWDTDYT6WPdfsn-46" target="DXRxuqhWDTDYT6WPdfsn-47" edge="1">
          <mxGeometry relative="1" as="geometry">
            <mxPoint x="-15" y="70" as="sourcePoint" />
          </mxGeometry>
        </mxCell>
        <mxCell id="DXRxuqhWDTDYT6WPdfsn-49" value="" style="html=1;points=[];perimeter=orthogonalPerimeter;outlineConnect=0;targetShapes=umlLifeline;portConstraint=eastwest;newEdgeStyle={&quot;edgeStyle&quot;:&quot;elbowEdgeStyle&quot;,&quot;elbow&quot;:&quot;vertical&quot;,&quot;curved&quot;:0,&quot;rounded&quot;:0};" parent="DXRxuqhWDTDYT6WPdfsn-46" vertex="1">
          <mxGeometry x="50" y="120" width="10" height="80" as="geometry" />
        </mxCell>
        <mxCell id="DXRxuqhWDTDYT6WPdfsn-50" value=":Object" style="shape=umlLifeline;perimeter=lifelinePerimeter;whiteSpace=wrap;html=1;container=0;dropTarget=0;collapsible=0;recursiveResize=0;outlineConnect=0;portConstraint=eastwest;newEdgeStyle={&quot;edgeStyle&quot;:&quot;elbowEdgeStyle&quot;,&quot;elbow&quot;:&quot;vertical&quot;,&quot;curved&quot;:0,&quot;rounded&quot;:0};" parent="1" vertex="1">
          <mxGeometry x="525" y="940" width="100" height="300" as="geometry" />
        </mxCell>
        <mxCell id="DXRxuqhWDTDYT6WPdfsn-51" value="" style="html=1;points=[];perimeter=orthogonalPerimeter;outlineConnect=0;targetShapes=umlLifeline;portConstraint=eastwest;newEdgeStyle={&quot;edgeStyle&quot;:&quot;elbowEdgeStyle&quot;,&quot;elbow&quot;:&quot;vertical&quot;,&quot;curved&quot;:0,&quot;rounded&quot;:0};" parent="DXRxuqhWDTDYT6WPdfsn-50" vertex="1">
          <mxGeometry x="45" y="80" width="10" height="170" as="geometry" />
        </mxCell>
        <mxCell id="DXRxuqhWDTDYT6WPdfsn-52" value="dispatch" style="html=1;verticalAlign=bottom;endArrow=block;edgeStyle=elbowEdgeStyle;elbow=vertical;curved=0;rounded=0;" parent="1" source="DXRxuqhWDTDYT6WPdfsn-47" target="DXRxuqhWDTDYT6WPdfsn-51" edge="1">
          <mxGeometry relative="1" as="geometry">
            <mxPoint x="500" y="1030" as="sourcePoint" />
            <Array as="points">
              <mxPoint x="485" y="1020" />
            </Array>
          </mxGeometry>
        </mxCell>
        <mxCell id="DXRxuqhWDTDYT6WPdfsn-53" value="return" style="html=1;verticalAlign=bottom;endArrow=open;dashed=1;endSize=8;edgeStyle=elbowEdgeStyle;elbow=vertical;curved=0;rounded=0;" parent="1" source="DXRxuqhWDTDYT6WPdfsn-51" target="DXRxuqhWDTDYT6WPdfsn-47" edge="1">
          <mxGeometry relative="1" as="geometry">
            <mxPoint x="500" y="1105" as="targetPoint" />
            <Array as="points">
              <mxPoint x="495" y="1180" />
            </Array>
          </mxGeometry>
        </mxCell>
        <mxCell id="DXRxuqhWDTDYT6WPdfsn-54" value="callback" style="html=1;verticalAlign=bottom;endArrow=block;edgeStyle=elbowEdgeStyle;elbow=vertical;curved=0;rounded=0;" parent="1" source="DXRxuqhWDTDYT6WPdfsn-51" target="DXRxuqhWDTDYT6WPdfsn-49" edge="1">
          <mxGeometry relative="1" as="geometry">
            <mxPoint x="480" y="1060" as="sourcePoint" />
            <Array as="points">
              <mxPoint x="495" y="1060" />
            </Array>
          </mxGeometry>
        </mxCell>
        <mxCell id="DXRxuqhWDTDYT6WPdfsn-55" value="return" style="html=1;verticalAlign=bottom;endArrow=open;dashed=1;endSize=8;edgeStyle=elbowEdgeStyle;elbow=vertical;curved=0;rounded=0;" parent="1" source="DXRxuqhWDTDYT6WPdfsn-49" target="DXRxuqhWDTDYT6WPdfsn-51" edge="1">
          <mxGeometry relative="1" as="geometry">
            <mxPoint x="480" y="1135" as="targetPoint" />
            <Array as="points">
              <mxPoint x="485" y="1130" />
            </Array>
          </mxGeometry>
        </mxCell>
      </root>
    </mxGraphModel>
  </diagram>
</mxfile>
